<svg xmlns="http://www.w3.org/2000/svg" viewBox="0 0 512 512" fill="none">
  <defs>
    <linearGradient id="bg" x1="0" x2="1" y1="0" y2="1">
      <stop offset="0%" stop-color="#020617"/>
      <stop offset="50%" stop-color="#0f172a"/>
      <stop offset="100%" stop-color="#111827"/>
    </linearGradient>
    <linearGradient id="glow" x1="0" x2="1" y1="0" y2="1">
      <stop offset="0%" stop-color="#67e8f9"/>
      <stop offset="100%" stop-color="#c084fc"/>
    </linearGradient>
  </defs>
  <rect width="512" height="512" rx="120" fill="url(#bg)"/>
  <circle cx="382" cy="120" r="6" fill="#fff" opacity=".95"/>
  <circle cx="330" cy="88" r="4" fill="#fff" opacity=".7"/>
  <circle cx="418" cy="178" r="4" fill="#67e8f9" opacity=".7"/>
  <path d="M294 118c-78 0-142 64-142 142s64 142 142 142c28 0 55-8 77-22-52-5-93-49-93-102 0-52 41-96 93-101a141 141 0 0 0-77-23Z" fill="#e2e8f0" opacity=".96"/>
  <path d="M352 86v32M352 170v32M310 144h32M394 144h32M323 115l23 23M381 173l23 23M323 173l23-23M381 115l23 23" stroke="url(#glow)" stroke-width="14" stroke-linecap="round"/>
  <path d="M106 376c48-46 94-69 138-69 58 0 104 28 162 96" stroke="url(#glow)" stroke-width="18" stroke-linecap="round" opacity=".72"/>
</svg>
